<svg width="57" height="57" viewBox="0 0 57 57" fill="none" xmlns="http://www.w3.org/2000/svg">
<rect width="57" height="57" rx="28.5" fill="#1A5E9A"/>
<path d="M22.0508 23.2129L18.1836 35H15.0684L20.3516 20.7812H22.334L22.0508 23.2129ZM25.2637 35L21.3867 23.2129L21.0742 20.7812H23.0762L28.3887 35H25.2637ZM25.0879 29.707V32.002H17.5781V29.707H25.0879ZM37.3828 20.7812H40.3027V30.1758C40.3027 31.2695 40.0684 32.1908 39.5996 32.9395C39.1374 33.6882 38.4961 34.2513 37.6758 34.6289C36.862 35.0065 35.9245 35.1953 34.8633 35.1953C33.8021 35.1953 32.8581 35.0065 32.0312 34.6289C31.2109 34.2513 30.5664 33.6882 30.0977 32.9395C29.6354 32.1908 29.4043 31.2695 29.4043 30.1758V20.7812H32.334V30.1758C32.334 30.8138 32.4349 31.3346 32.6367 31.7383C32.8385 32.1419 33.1283 32.4382 33.5059 32.627C33.89 32.8158 34.3424 32.9102 34.8633 32.9102C35.3971 32.9102 35.8496 32.8158 36.2207 32.627C36.5983 32.4382 36.8848 32.1419 37.0801 31.7383C37.2819 31.3346 37.3828 30.8138 37.3828 30.1758V20.7812Z" fill="white"/>
</svg>
