<svg width="23" height="23" viewBox="0 0 23 23" fill="none" xmlns="http://www.w3.org/2000/svg">
<path d="M16.4399 12.4894C16.9873 11.942 16.9873 11.0572 16.4399 10.5098C16.1669 10.2368 15.8085 10.0996 15.4501 10.0996C15.0917 10.0996 14.7333 10.2368 14.4603 10.5098L12.6501 12.32V1.69965C12.6501 0.926848 12.0243 0.299648 11.2501 0.299648C10.4759 0.299648 9.85006 0.926848 9.85006 1.69965V12.32L8.03986 10.5098C7.49246 9.96245 6.60766 9.96245 6.06026 10.5098C5.51286 11.0572 5.51286 11.942 6.06026 12.4894L10.2603 16.6894C10.8077 17.2368 11.6925 17.2368 12.2399 16.6894L16.4399 12.4894Z" fill="white"/>
<path d="M1.45005 19.9C0.67685 19.9 0.0500488 20.5268 0.0500488 21.3C0.0500488 22.0732 0.67685 22.7 1.45005 22.7H21.0501C21.8232 22.7 22.4501 22.0732 22.4501 21.3C22.4501 20.5268 21.8232 19.9 21.0501 19.9H1.45005Z" fill="white"/>
</svg>
