<svg width="28" height="28" viewBox="0 0 28 28" fill="none" xmlns="http://www.w3.org/2000/svg">
<path d="M13.8837 13.0209C14.7388 13.0209 15.5747 12.7673 16.2857 12.2922C16.9967 11.8171 17.5508 11.1418 17.878 10.3518C18.2052 9.56174 18.2908 8.69241 18.1239 7.85374C17.957 7.01506 17.5452 6.24471 16.9405 5.64011C16.3357 5.03551 15.5653 4.62382 14.7266 4.4571C13.8879 4.29038 13.0186 4.37612 12.2286 4.70348C11.4386 5.03084 10.7635 5.58511 10.2885 6.29621C9.81354 7.0073 9.56013 7.84326 9.5603 8.69838C9.56169 9.84451 10.0177 10.9433 10.8282 11.7536C11.6387 12.564 12.7376 13.0197 13.8837 13.0209ZM13.8837 6.12501C14.3926 6.12501 14.8902 6.27593 15.3134 6.5587C15.7366 6.84146 16.0664 7.24337 16.2612 7.71359C16.4559 8.18382 16.5069 8.70124 16.4076 9.20042C16.3083 9.69961 16.0632 10.1581 15.7033 10.518C15.3434 10.8779 14.8849 11.123 14.3857 11.2223C13.8865 11.3216 13.3691 11.2706 12.8989 11.0759C12.4287 10.8811 12.0268 10.5513 11.744 10.1281C11.4612 9.70488 11.3103 9.20735 11.3103 8.69838C11.3112 8.01617 11.5826 7.36215 12.065 6.87975C12.5475 6.39735 13.2015 6.12593 13.8837 6.12501Z" fill="#717579"/>
<path d="M5.71636 15.5619C6.37398 15.5619 7.01684 15.3669 7.56363 15.0015C8.11042 14.6361 8.5366 14.1169 8.78826 13.5093C9.03992 12.9017 9.10576 12.2332 8.97747 11.5882C8.84917 10.9432 8.5325 10.3507 8.06749 9.88574C7.60248 9.42073 7.01002 9.10405 6.36503 8.97576C5.72005 8.84746 5.0515 8.91331 4.44394 9.16497C3.83637 9.41663 3.31708 9.8428 2.95172 10.3896C2.58637 10.9364 2.39136 11.5792 2.39136 12.2369C2.39136 13.1187 2.74167 13.9644 3.36523 14.588C3.98879 15.2116 4.83451 15.5619 5.71636 15.5619ZM5.71636 10.6619C6.02786 10.6619 6.33237 10.7542 6.59138 10.9273C6.85039 11.1004 7.05226 11.3463 7.17147 11.6341C7.29068 11.9219 7.32187 12.2386 7.26109 12.5441C7.20032 12.8497 7.05032 13.1303 6.83005 13.3506C6.60978 13.5708 6.32914 13.7208 6.02362 13.7816C5.7181 13.8424 5.40142 13.8112 5.11363 13.692C4.82584 13.5728 4.57986 13.3709 4.40679 13.1119C4.23373 12.8529 4.14136 12.5484 4.14136 12.2369C4.14136 11.8192 4.30729 11.4185 4.60266 11.1232C4.89803 10.8278 5.29864 10.6619 5.71636 10.6619Z" fill="#717579"/>
<path d="M22.05 15.5619C22.7076 15.5619 23.3505 15.3669 23.8972 15.0015C24.444 14.6361 24.8702 14.1169 25.1219 13.5093C25.3735 12.9017 25.4394 12.2332 25.3111 11.5882C25.1828 10.9432 24.8661 10.3507 24.4011 9.88574C23.9361 9.42073 23.3436 9.10405 22.6987 8.97576C22.0537 8.84746 21.3851 8.91331 20.7776 9.16497C20.17 9.41663 19.6507 9.8428 19.2853 10.3896C18.92 10.9364 18.725 11.5792 18.725 12.2369C18.725 13.1187 19.0753 13.9644 19.6988 14.588C20.3224 15.2116 21.1681 15.5619 22.05 15.5619ZM22.05 10.6619C22.3615 10.6619 22.666 10.7542 22.925 10.9273C23.184 11.1004 23.3859 11.3463 23.5051 11.6341C23.6243 11.9219 23.6555 12.2386 23.5947 12.5441C23.5339 12.8497 23.3839 13.1303 23.1637 13.3506C22.9434 13.5708 22.6628 13.7208 22.3572 13.7816C22.0517 13.8424 21.735 13.8112 21.4472 13.692C21.1595 13.5728 20.9135 13.3709 20.7404 13.1119C20.5673 12.8529 20.475 12.5484 20.475 12.2369C20.475 11.8192 20.6409 11.4185 20.9363 11.1232C21.2317 10.8278 21.6323 10.6619 22.05 10.6619Z" fill="#717579"/>
<path d="M22.1663 17.3171C21.3993 17.3222 20.6456 17.5186 19.9736 17.8885C19.3347 16.8771 18.4541 16.0406 17.4113 15.4545C16.3684 14.8684 15.1961 14.551 13.9999 14.5311C12.8038 14.551 11.6315 14.8684 10.5886 15.4545C9.54575 16.0406 8.66518 16.8771 8.02632 17.8885C7.35432 17.5186 6.60064 17.3222 5.83357 17.3171C4.4571 17.3843 3.16311 17.9933 2.23408 19.0112C1.30506 20.0291 0.816455 21.3731 0.874946 22.75C0.874946 22.9821 0.967133 23.2046 1.13123 23.3687C1.29532 23.5328 1.51788 23.625 1.74995 23.625C1.98201 23.625 2.20457 23.5328 2.36866 23.3687C2.53276 23.2046 2.62495 22.9821 2.62495 22.75C2.5676 21.8374 2.87227 20.939 3.47292 20.2496C4.07356 19.5602 4.92175 19.1353 5.83357 19.0671C6.31711 19.0708 6.79183 19.197 7.21345 19.4338C6.80107 20.473 6.58995 21.5812 6.59132 22.6993C6.59132 22.9313 6.68351 23.1539 6.8476 23.318C7.0117 23.4821 7.23426 23.5743 7.46632 23.5743C7.69839 23.5743 7.92094 23.4821 8.08504 23.318C8.24913 23.1539 8.34132 22.9313 8.34132 22.6993C8.34132 19.1599 10.8788 16.2811 13.9999 16.2811C17.1211 16.2811 19.6586 19.1599 19.6586 22.6993C19.6586 22.9313 19.7508 23.1539 19.9149 23.318C20.0789 23.4821 20.3015 23.5743 20.5336 23.5743C20.7656 23.5743 20.9882 23.4821 21.1523 23.318C21.3164 23.1539 21.4086 22.9313 21.4086 22.6993C21.4099 21.5812 21.1988 20.473 20.7864 19.4338C21.2081 19.197 21.6828 19.0708 22.1663 19.0671C23.0781 19.1353 23.9263 19.5602 24.527 20.2496C25.1276 20.939 25.4323 21.8374 25.3749 22.75C25.3749 22.9821 25.4671 23.2046 25.6312 23.3687C25.7953 23.5328 26.0179 23.625 26.2499 23.625C26.482 23.625 26.7046 23.5328 26.8687 23.3687C27.0328 23.2046 27.1249 22.9821 27.1249 22.75C27.1834 21.3731 26.6948 20.0291 25.7658 19.0112C24.8368 17.9933 23.5428 17.3843 22.1663 17.3171Z" fill="#717579"/>
</svg>
