<svg width="22" height="28" viewBox="0 0 22 28" fill="none" xmlns="http://www.w3.org/2000/svg">
<path d="M3.4129 7.49635C3.50608 7.2899 3.41426 7.04698 3.20782 6.95374C3.00137 6.86055 2.75845 6.95237 2.66521 7.15882C2.13162 8.34078 1.86108 9.6016 1.86108 10.9063C1.86108 15.9455 5.96073 20.0452 10.9999 20.0452C16.0391 20.0452 20.1387 15.9455 20.1387 10.9063C20.1387 5.86748 16.0391 1.76805 10.9999 1.76805C9.53784 1.76805 8.13992 2.10449 6.84497 2.76812C5.61046 3.40075 4.51693 4.32371 3.68262 5.4372C3.54677 5.61843 3.58363 5.87557 3.76492 6.01136C3.94621 6.14721 4.20329 6.11035 4.33908 5.92906C5.09902 4.91482 6.09494 4.07422 7.21909 3.49814C8.39712 2.89445 9.6692 2.58836 10.9999 2.58836C15.5868 2.58836 19.3184 6.3198 19.3184 10.9063C19.3184 11.612 19.2298 12.2972 19.0636 12.9519C18.7518 12.2204 18.0865 11.6749 17.2836 11.5296C17.7504 11.0563 18.0393 10.4069 18.0393 9.69107C18.0393 8.24644 16.864 7.07115 15.4194 7.07115C14.686 7.07115 14.0224 7.37445 13.5464 7.86166C13.2693 6.7124 12.2331 5.85578 10.9999 5.85578C9.76676 5.85578 8.73055 6.7124 8.45339 7.86166C7.97739 7.37439 7.31381 7.07115 6.58045 7.07115C5.13583 7.07115 3.96054 8.24644 3.96054 9.69107C3.96054 10.4069 4.24934 11.0563 4.71626 11.5296C3.91334 11.6749 3.24801 12.2204 2.93619 12.9519C2.77005 12.2973 2.6814 11.612 2.6814 10.9063C2.6814 9.71879 2.92749 8.5715 3.4129 7.49635ZM18.4343 13.8895V14.6353C18.17 15.1601 17.8517 15.6532 17.4868 16.1074V14.8287C17.4868 14.6022 17.3032 14.4185 17.0767 14.4185C16.8502 14.4185 16.6665 14.6022 16.6665 14.8287V16.9903C16.1194 17.5002 15.5039 17.9373 14.8351 18.2863V12.6744C14.8351 12.5508 14.8257 12.4295 14.8076 12.3109H16.8557C17.7261 12.3109 18.4343 13.0191 18.4343 13.8895ZM15.4194 7.89146C16.4117 7.89146 17.219 8.69876 17.219 9.69107C17.219 10.6834 16.4117 11.4906 15.4194 11.4906C14.4271 11.4906 13.6198 10.6833 13.6198 9.69107C13.6198 8.69876 14.4271 7.89146 15.4194 7.89146ZM10.9999 6.67609C11.9922 6.67609 12.7995 7.48339 12.7995 8.47569C12.7995 9.468 11.9922 10.2752 10.9999 10.2752C10.0076 10.2752 9.20031 9.46794 9.20031 8.47569C9.20031 7.48339 10.0076 6.67609 10.9999 6.67609ZM6.58045 7.89146C7.57276 7.89146 8.38 8.69876 8.38 9.69107C8.38 10.6834 7.5727 11.4906 6.58045 11.4906C5.58815 11.4906 4.78085 10.6833 4.78085 9.69107C4.78085 8.69876 5.58815 7.89146 6.58045 7.89146ZM3.56553 13.8895C3.56553 13.019 4.27368 12.3109 5.14414 12.3109H7.19219C7.17408 12.4294 7.16468 12.5508 7.16468 12.6743V14.2028C7.16468 14.4294 7.34832 14.613 7.57483 14.613C7.80135 14.613 7.98499 14.4294 7.98499 14.2028V12.6743C7.98499 11.8038 8.69325 11.0955 9.56382 11.0955H12.436C13.3066 11.0955 14.0148 11.8038 14.0148 12.6743V18.6592C13.7074 18.7791 13.3912 18.8815 13.0674 18.9647V13.7238C13.0674 13.4973 12.8837 13.3136 12.6572 13.3136C12.4307 13.3136 12.2471 13.4973 12.2471 13.7238V19.1313C11.8401 19.1927 11.4237 19.2248 10.9999 19.2248C10.5761 19.2248 10.1597 19.1928 9.75276 19.1313V13.7238C9.75276 13.4973 9.56912 13.3136 9.34261 13.3136C9.11609 13.3136 8.93245 13.4973 8.93245 13.7238V18.9647C8.60859 18.8816 8.29244 18.7791 7.98499 18.6592V16.117C7.98499 15.8904 7.80135 15.7068 7.57483 15.7068C7.34832 15.7068 7.16468 15.8904 7.16468 16.117V18.2862C6.49596 17.9373 5.8804 17.5001 5.3333 16.9902V14.8286C5.3333 14.6021 5.14966 14.4185 4.92315 14.4185C4.69663 14.4185 4.51299 14.6021 4.51299 14.8286V16.1073C4.14812 15.6532 3.82983 15.1601 3.56553 14.6353V13.8895Z" fill="#707579"/>
<path d="M11 0C4.98619 0 0.0936279 4.89256 0.0936279 10.9063C0.0936279 16.1744 3.84825 20.582 8.82203 21.594V23.1704C8.82203 23.3969 9.00567 23.5805 9.23218 23.5805H9.26396V24.528H9.23218C9.00567 24.528 8.82203 24.7116 8.82203 24.9382V27.5898C8.82203 27.8164 9.00567 28 9.23218 28C9.4587 28 9.64234 27.8164 9.64234 27.5898V25.3483H12.3576V27.5898C12.3576 27.8164 12.5412 28 12.7677 28C12.9942 28 13.1779 27.8164 13.1779 27.5898V24.9382C13.1779 24.7116 12.9942 24.528 12.7677 24.528H12.736V23.5805H12.7677C12.9942 23.5805 13.1779 23.3969 13.1779 23.1704V21.5919C14.1889 21.3864 15.1689 21.04 16.0792 20.56C16.2796 20.4543 16.3564 20.2062 16.2507 20.0058C16.145 19.8055 15.8969 19.7288 15.6966 19.8343C14.2601 20.5919 12.636 20.9923 11 20.9923C5.43851 20.9923 0.91394 16.4678 0.91394 10.9063C0.91394 5.34488 5.43851 0.820312 11 0.820312C16.5614 0.820312 21.086 5.34488 21.086 10.9063C21.086 14.0167 19.6831 16.906 17.237 18.8332C17.0591 18.9734 17.0284 19.2313 17.1686 19.4092C17.3088 19.5872 17.5667 19.6177 17.7446 19.4776C20.3894 17.3938 21.9063 14.2697 21.9063 10.9064C21.9063 4.89256 17.0137 0 11 0V0ZM11.9156 24.528H10.0843V23.5805H11.9156V24.528ZM12.3576 21.7272V22.7602H9.64234V21.7283C10.0872 21.7838 10.5403 21.8127 11 21.8127C11.4544 21.8127 11.908 21.7836 12.3576 21.7272Z" fill="#707579"/>
</svg>
