<svg width="32" height="33" viewBox="0 0 32 33" fill="none" xmlns="http://www.w3.org/2000/svg">
<rect y="0.5" width="32" height="32" rx="16" fill="#F5F5F5"/>
<path d="M7.66675 11.5C7.66675 11.058 7.84234 10.6341 8.1549 10.3215C8.46746 10.0089 8.89139 9.83334 9.33341 9.83334H16.8334C17.2754 9.83334 17.6994 10.0089 18.0119 10.3215C18.3245 10.6341 18.5001 11.058 18.5001 11.5V13.1667C18.5001 13.3877 18.4123 13.5997 18.256 13.7559C18.0997 13.9122 17.8878 14 17.6667 14C17.4457 14 17.2338 13.9122 17.0775 13.7559C16.9212 13.5997 16.8334 13.3877 16.8334 13.1667V11.5H9.33341V21.5H16.8334V19.8333C16.8334 19.6123 16.9212 19.4004 17.0775 19.2441C17.2338 19.0878 17.4457 19 17.6667 19C17.8878 19 18.0997 19.0878 18.256 19.2441C18.4123 19.4004 18.5001 19.6123 18.5001 19.8333V21.5C18.5001 21.942 18.3245 22.366 18.0119 22.6785C17.6994 22.9911 17.2754 23.1667 16.8334 23.1667H9.33341C8.89139 23.1667 8.46746 22.9911 8.1549 22.6785C7.84234 22.366 7.66675 21.942 7.66675 21.5V11.5ZM20.4109 13.4108C20.5672 13.2546 20.7791 13.1669 21.0001 13.1669C21.2211 13.1669 21.433 13.2546 21.5892 13.4108L24.0892 15.9108C24.2455 16.0671 24.3332 16.279 24.3332 16.5C24.3332 16.721 24.2455 16.9329 24.0892 17.0892L21.5892 19.5892C21.4321 19.741 21.2216 19.825 21.0031 19.8231C20.7846 19.8212 20.5756 19.7335 20.4211 19.579C20.2666 19.4245 20.1789 19.2155 20.177 18.997C20.1751 18.7785 20.2591 18.568 20.4109 18.4108L21.4884 17.3333H13.5001C13.2791 17.3333 13.0671 17.2455 12.9108 17.0893C12.7545 16.933 12.6667 16.721 12.6667 16.5C12.6667 16.279 12.7545 16.067 12.9108 15.9108C13.0671 15.7545 13.2791 15.6667 13.5001 15.6667H21.4884L20.4109 14.5892C20.2547 14.4329 20.1669 14.221 20.1669 14C20.1669 13.779 20.2547 13.5671 20.4109 13.4108Z" fill="#A3A3A3"/>
</svg>
