<svg width="28" height="28" viewBox="0 0 28 28" fill="none" xmlns="http://www.w3.org/2000/svg">
<path d="M24.035 9.99999H23.158C22.884 9.36634 22.5445 8.76306 22.145 8.19999L22.593 7.45299C22.9974 6.77874 23.1176 5.9715 22.9271 5.20869C22.7365 4.44588 22.2509 3.78993 21.577 3.385L19.8 2.32C19.1256 1.9167 18.3189 1.79718 17.5566 1.98762C16.7942 2.17807 16.1385 2.66294 15.733 3.336L15.286 4.083C14.4322 3.97299 13.5678 3.97299 12.714 4.083L12.267 3.336C11.8615 2.66294 11.2058 2.17807 10.4434 1.98762C9.68111 1.79718 8.87437 1.9167 8.2 2.32L6.423 3.385C5.74905 3.78993 5.26346 4.44588 5.07294 5.20869C4.88243 5.9715 5.00258 6.77874 5.407 7.45299L5.855 8.19899C5.45574 8.76254 5.11625 9.36613 4.842 9.99999H3.964C3.17805 10.0011 2.42461 10.3138 1.86895 10.8697C1.31329 11.4255 1.00079 12.179 1 12.965V15.035C1.00079 15.8209 1.31329 16.5745 1.86895 17.1303C2.42461 17.6862 3.17805 17.9989 3.964 18H4.842C5.11631 18.6335 5.4558 19.2368 5.855 19.8L5.407 20.546C5.00258 21.2202 4.88243 22.0275 5.07294 22.7903C5.26346 23.5531 5.74905 24.2091 6.423 24.614L8.2 25.68C8.87417 26.0841 9.68117 26.2041 10.4437 26.0136C11.2063 25.8231 11.8621 25.3377 12.267 24.664L12.714 23.917C13.5678 24.027 14.4322 24.027 15.286 23.917L15.733 24.664C16.1385 25.337 16.7942 25.8219 17.5566 26.0124C18.3189 26.2028 19.1256 26.0833 19.8 25.68L21.576 24.615C22.2499 24.2101 22.7355 23.5541 22.9261 22.7913C23.1166 22.0285 22.9964 21.2212 22.592 20.547L22.144 19.8C22.5438 19.237 22.8836 18.6337 23.158 18H24.035C24.8211 17.9992 25.5748 17.6866 26.1307 17.1307C26.6866 16.5748 26.9992 15.8211 27 15.035V12.965C26.9992 12.1789 26.6866 11.4252 26.1307 10.8693C25.5748 10.3134 24.8211 10.0008 24.035 9.99999ZM25 15.035C24.9997 15.2908 24.898 15.5361 24.7171 15.7171C24.5361 15.898 24.2909 15.9997 24.035 16H22.477C22.2704 16.0001 22.069 16.0642 21.9003 16.1835C21.7316 16.3027 21.604 16.4713 21.535 16.666C21.2259 17.5515 20.7628 18.3755 20.167 19.1C20.0353 19.2595 19.9562 19.456 19.9408 19.6623C19.9254 19.8686 19.9744 20.0747 20.081 20.252L20.881 21.582C20.9463 21.6905 20.9896 21.8109 21.0083 21.9362C21.027 22.0615 21.0208 22.1893 20.99 22.3122C20.9593 22.4351 20.9046 22.5507 20.8291 22.6524C20.7536 22.7541 20.6587 22.84 20.55 22.905L18.775 23.97C18.6663 24.0352 18.5459 24.0784 18.4205 24.097C18.2952 24.1157 18.1674 24.1094 18.0444 24.0787C17.9215 24.048 17.8058 23.9933 17.704 23.9179C17.6022 23.8424 17.5162 23.7477 17.451 23.639L16.651 22.311C16.5466 22.1329 16.3892 21.9918 16.2009 21.9073C16.0125 21.8229 15.8024 21.7994 15.6 21.84C14.5472 22.052 13.4628 22.052 12.41 21.84C12.2074 21.7973 11.9964 21.8193 11.807 21.903C11.6175 21.9866 11.4591 22.1275 11.354 22.306L10.554 23.634C10.4889 23.7426 10.403 23.8374 10.3013 23.9128C10.1996 23.9882 10.084 24.0429 9.96109 24.0736C9.83822 24.1044 9.71051 24.1106 9.58523 24.0919C9.45996 24.0733 9.33959 24.0302 9.231 23.965L7.453 22.9C7.34426 22.835 7.24942 22.7491 7.17391 22.6474C7.0984 22.5457 7.04371 22.4301 7.01296 22.3072C6.98221 22.1843 6.97602 22.0565 6.99473 21.9312C7.01344 21.8059 7.05669 21.6855 7.122 21.577L7.922 20.247C8.02706 20.0699 8.07489 19.8647 8.05896 19.6594C8.04303 19.4541 7.96412 19.2588 7.833 19.1C7.23797 18.3774 6.7752 17.5555 6.466 16.672C6.39795 16.476 6.27062 16.306 6.10166 16.1856C5.9327 16.0652 5.73047 16.0003 5.523 16H3.964C3.70832 15.9995 3.46328 15.8976 3.28258 15.7167C3.10188 15.5358 3.00026 15.2907 3 15.035V12.965C3.00026 12.7093 3.10188 12.4642 3.28258 12.2833C3.46328 12.1024 3.70832 12.0005 3.964 12H5.523C5.72987 12 5.93165 11.9359 6.10054 11.8164C6.26943 11.6969 6.39711 11.5281 6.466 11.333C6.77466 10.4477 7.23746 9.62406 7.833 8.89999C7.96475 8.74046 8.04377 8.54399 8.05917 8.33767C8.07458 8.13134 8.0256 7.92532 7.919 7.74799L7.119 6.41799C6.98894 6.19882 6.95106 5.93703 7.01366 5.68998C7.07627 5.44293 7.23425 5.23077 7.453 5.1L9.228 4.035C9.44766 3.90411 9.71019 3.86546 9.95825 3.92748C10.2063 3.98949 10.4198 4.14714 10.552 4.366L11.352 5.69399C11.4576 5.87191 11.6161 6.01244 11.8054 6.09597C11.9947 6.17951 12.2054 6.20189 12.408 6.15999C13.4608 5.94801 14.5452 5.94801 15.598 6.15999C15.8006 6.20098 16.0109 6.17818 16.2 6.09473C16.3891 6.01128 16.5477 5.87128 16.654 5.69399L17.454 4.366C17.586 4.14721 17.7993 3.98958 18.0472 3.92756C18.2951 3.86554 18.5575 3.90416 18.777 4.035L20.547 5.1C20.6557 5.16501 20.7506 5.25083 20.8261 5.35256C20.9016 5.45428 20.9563 5.56991 20.987 5.69281C21.0178 5.81571 21.024 5.94347 21.0053 6.06877C20.9866 6.19406 20.9433 6.31444 20.878 6.42299L20.078 7.75299C19.9729 7.93008 19.9251 8.13528 19.941 8.34057C19.957 8.54586 20.0359 8.74123 20.167 8.89999C20.7622 9.62294 21.2253 10.4452 21.535 11.329C21.604 11.5237 21.7316 11.6923 21.9003 11.8115C22.069 11.9308 22.2704 11.9949 22.477 11.995H24.035C24.2909 11.9953 24.5361 12.097 24.7171 12.2779C24.898 12.4588 24.9997 12.7041 25 12.96V15.035Z" fill="#717579"/>
<path d="M14 9C13.0111 9 12.0444 9.29324 11.2222 9.84265C10.3999 10.3921 9.75904 11.1729 9.3806 12.0866C9.00217 13.0002 8.90315 14.0055 9.09608 14.9754C9.289 15.9453 9.76521 16.8363 10.4645 17.5355C11.1637 18.2348 12.0546 18.711 13.0246 18.9039C13.9945 19.0968 14.9998 18.9978 15.9134 18.6194C16.8271 18.2409 17.6079 17.6001 18.1574 16.7778C18.7068 15.9556 19 14.9889 19 14C18.9984 12.6744 18.4711 11.4036 17.5338 10.4662C16.5964 9.52888 15.3256 9.00159 14 9ZM14 17C13.4067 17 12.8266 16.824 12.3333 16.4944C11.8399 16.1648 11.4554 15.6962 11.2284 15.148C11.0013 14.5999 10.9419 13.9967 11.0576 13.4147C11.1734 12.8328 11.4591 12.2982 11.8787 11.8787C12.2982 11.4591 12.8328 11.1734 13.4147 11.0576C13.9967 10.9419 14.5999 11.0013 15.1481 11.2284C15.6962 11.4554 16.1648 11.8399 16.4944 12.3333C16.8241 12.8266 17 13.4066 17 14C17 14.7956 16.6839 15.5587 16.1213 16.1213C15.5587 16.6839 14.7957 17 14 17Z" fill="#717579"/>
</svg>
